# xmcd
#
# Track frame offsets:
#	187
#	16275
#	36905
#	61740
#	82037
#	103002
#	126880
#	145797
#	163080
#	179900
#	197970
#	214837
#
# Disc length: 3167 seconds
#
# Revision: 1
# Processed by: cddbd v1.5PL3 Copyright (c) Steve Scherf et al.
# Submitted via: CDex 1.50Beta5
#
DISCID=b10c5d0c
DTITLE=荻野目洋子 - KNOCK ON MY DOOR
DYEAR=1990
DGENRE=Pop
TTITLE0=待ちきれない瞳
TTITLE1=扉はミラクル
TTITLE2=KNOCK ON MY DOOR
TTITLE3=ANGEL EYES
TTITLE4=ギャラリー
TTITLE5=Yes,it’s me
TTITLE6=Type:B
TTITLE7=JULIA
TTITLE8=BEAT GOES ON
TTITLE9=恋にアクセス
TTITLE10=きれいになりたい
TTITLE11=Birthday
EXTD=
EXTT0=
EXTT1=
EXTT2=
EXTT3=
EXTT4=
EXTT5=
EXTT6=
EXTT7=
EXTT8=
EXTT9=
EXTT10=
EXTT11=
PLAYORDER=
